<svg width="34" height="34" viewBox="0 0 34 34" fill="none" xmlns="http://www.w3.org/2000/svg">
<path d="M20.9142 13.0094C24.5354 16.6306 26.5288 21.3944 26.5288 26.4233L29.4241 26.4233C29.4251 20.6214 27.1297 15.1297 22.9618 10.9618C18.7929 6.79497 13.3023 4.49858 7.50039 4.49961L7.5004 7.39491C12.5293 7.39491 17.2931 9.38825 20.9142 13.0094ZM18.2155 27.3201C18.2155 21.0258 12.8979 15.7082 6.60355 15.7082L6.60355 18.6035C11.3274 18.6035 15.3202 22.5963 15.3202 27.3201L18.2155 27.3201Z" fill="#004597"/>
<path d="M24.1331 27.0662C24.1352 17.7025 16.2222 9.78958 6.85855 9.79163L6.85855 12.6869C14.6538 12.6869 21.2378 19.271 21.2378 27.0662L24.1331 27.0662Z" fill="#004597"/>
</svg>
